<svg id="Layer_9" data-name="Layer 9" xmlns="http://www.w3.org/2000/svg" viewBox="0 0 370.35 323.07"><title>logo</title><path d="M1242.52,382c-1.37,9.2-20.74,41.09-58.61,26.61-32.76-12.52-27.06-57.56-23.4-81.64a42.39,42.39,0,0,1,13.79-25.61c16.85-14.74,32.35-4.12,74.48-9,37.1-4.26,43.12-36.76,44-45a1.71,1.71,0,0,0-1.7-1.91H1151.48a1.27,1.27,0,0,0-.28,0c-1.72.27-18.15,3.31-28.85,20.72l-.06.08a54.42,54.42,0,0,0-8.12,28.57V484.94A28.34,28.34,0,0,0,1128,509.3c40.75,24.21,90,53.05,96.48,55.83,11,4.7,28.57,4.31,39.52,0s29-20.74,29-41.48c0-19.56-1.2-202.09-1.34-222.71a1.7,1.7,0,0,0-1.9-1.69C1239,305.38,1246.39,356.1,1242.52,382Z" transform="translate(-922.65 -245.44)" style="fill:#231f20"/><path d="M1100.67,382.43V346.56l-.23-.23-46.26.3-35.3.23a1.7,1.7,0,0,0-1.69,1.9c2.87,23.8,15.71,34.82,31.21,40.2-6.54,12.42-25.11,31.46-56,19.65C959.63,396.09,965.33,351.05,969,327a42.41,42.41,0,0,1,13.8-25.61c16.85-14.74,32.35-4.12,74.48-9,37.1-4.26,43.12-36.76,44-45a1.71,1.71,0,0,0-1.71-1.91H960l-.25,0c-1.62.25-18.13,3.24-28.87,20.72l-.06.08a54.27,54.27,0,0,0-8.12,28.56V484.94a28.36,28.36,0,0,0,13.86,24.36c40.75,24.21,90,53.05,96.49,55.83,11,4.7,28.57,4.31,39.52,0s29-20.74,29-41.48C1101.48,511.9,1101.05,441.37,1100.67,382.43Z" transform="translate(-922.65 -245.44)" style="fill:#231f20"/></svg>